<?xml version="1.0" encoding="utf-8"?>
<!-- Generator: Adobe Illustrator 24.3.0, SVG Export Plug-In . SVG Version: 6.00 Build 0)  -->
<svg version="1.1" id="Artwork" xmlns="http://www.w3.org/2000/svg" xmlns:xlink="http://www.w3.org/1999/xlink" x="0px" y="0px"
	 width="139.6217px" height="40px" viewBox="0 0 139.6217 40" style="enable-background:new 0 0 139.6217 40;" xml:space="preserve"
	>
<style type="text/css">
	.st0{fill:#A6A6A6;}
	.st1{fill:#FFFFFF;}
	.st2{fill-rule:evenodd;clip-rule:evenodd;fill:url(#SVGID_1_);}
	.st3{fill-rule:evenodd;clip-rule:evenodd;fill:#FFFFFF;}
</style>
<g>
	<g>
		<g>
			<g>
				<path class="st0" d="M130.0924,0H9.5347C9.168,0,8.8057,0,8.4399,0.002C8.1338,0.0039,7.8301,0.0098,7.521,0.0146
					C6.8555,0.0312,6.1816,0.0723,5.5171,0.1914c-0.6694,0.1172-1.2915,0.3174-1.9009,0.627
					C3.0176,1.125,2.4707,1.5234,1.9976,1.9971C1.519,2.4707,1.1226,3.0195,0.8193,3.6182c-0.311,0.6084-0.5083,1.2334-0.625,1.9033
					c-0.1206,0.6621-0.1621,1.332-0.1792,2.002C0.0059,7.8301,0.0049,8.1377,0,8.4443c0,0.3623,0,0.7256,0,1.0918v20.9287
					c0,0.3692,0,0.7305,0,1.0938c0.0049,0.3105,0.0059,0.6113,0.0151,0.9219c0.0171,0.6699,0.0586,1.3398,0.1792,2.0019
					c0.1167,0.6699,0.314,1.2979,0.625,1.9043c0.3032,0.5957,0.6997,1.1446,1.1782,1.6143c0.4731,0.4775,1.02,0.875,1.6187,1.1787
					c0.6094,0.3125,1.2314,0.5098,1.9009,0.6308c0.6645,0.1192,1.3384,0.1583,2.0039,0.1768
					c0.3091,0.0068,0.6128,0.0107,0.9189,0.0107C8.8057,40,9.168,40,9.5347,40h120.5577c0.3594,0,0.7246,0,1.084-0.002
					c0.3047,0,0.6172-0.0039,0.9219-0.0107c0.6699-0.0185,1.3418-0.0576,2-0.1768c0.6699-0.121,1.2929-0.3183,1.9082-0.6308
					c0.5976-0.3037,1.1445-0.7012,1.6172-1.1787c0.4765-0.4697,0.873-1.0186,1.1816-1.6143
					c0.3066-0.6064,0.5059-1.2344,0.6191-1.9043c0.1231-0.6621,0.1621-1.332,0.1856-2.0019
					c0.0039-0.3106,0.0039-0.6114,0.0039-0.9219c0.0078-0.3633,0.0078-0.7246,0.0078-1.0938V9.5361c0-0.3662,0-0.7295-0.0078-1.0918
					c0-0.3066,0-0.6143-0.0039-0.9209c-0.0235-0.6699-0.0625-1.3398-0.1856-2.002c-0.1132-0.6699-0.3125-1.2949-0.6191-1.9033
					c-0.3086-0.5986-0.7051-1.1475-1.1816-1.6211c-0.4727-0.4736-1.0196-0.8721-1.6172-1.1787
					c-0.6153-0.3096-1.2383-0.5098-1.9082-0.627c-0.6582-0.1191-1.3301-0.1602-2-0.1768c-0.3047-0.0049-0.6172-0.0107-0.9219-0.0127
					C130.817,0,130.4518,0,130.0924,0L130.0924,0z"/>
				<path d="M8.4448,39.125c-0.3047,0-0.602-0.0039-0.9043-0.0107c-0.5591-0.0157-1.2222-0.0469-1.8691-0.1631
					c-0.6104-0.1104-1.1528-0.2901-1.6567-0.5479c-0.5215-0.2646-0.9902-0.6064-1.397-1.0166
					c-0.4141-0.4062-0.7544-0.873-1.0205-1.3965c-0.2593-0.5048-0.4365-1.0468-0.543-1.6572
					c-0.1221-0.6728-0.1533-1.3555-0.1665-1.875c-0.0063-0.2109-0.0146-0.9131-0.0146-0.9131V8.4443
					c0,0,0.0088-0.6914,0.0146-0.8945c0.0132-0.5239,0.0444-1.206,0.1655-1.8721C1.1602,5.064,1.3374,4.5225,1.5967,4.0156
					C1.8623,3.4912,2.2031,3.022,2.6118,2.6177c0.4136-0.4141,0.8843-0.7568,1.4023-1.0225
					c0.5137-0.2607,1.0552-0.439,1.6533-0.5439c0.6733-0.1206,1.356-0.1509,1.8755-0.1641L8.4453,0.875h122.7262l0.9131,0.0127
					c0.5127,0.0127,1.1953,0.043,1.8584,0.1626c0.6025,0.1055,1.1475,0.2847,1.6709,0.5479
					c0.5127,0.2627,0.9824,0.6055,1.3916,1.0156c0.4092,0.4062,0.7519,0.8779,1.0234,1.4043
					c0.2578,0.5112,0.4336,1.0527,0.5352,1.6489c0.1162,0.6309,0.1523,1.2788,0.1738,1.8872
					c0.0029,0.2832,0.0029,0.5874,0.0029,0.8901c0.0079,0.375,0.0079,0.7319,0.0079,1.0918v20.9287c0,0.3633,0,0.7178-0.0079,1.0752
					c0,0.3252,0,0.6231-0.0039,0.9297c-0.0205,0.5889-0.0566,1.2364-0.1709,1.8535c-0.1035,0.6133-0.2793,1.1553-0.54,1.67
					c-0.2695,0.5195-0.6123,0.9892-1.0156,1.3857c-0.4131,0.418-0.8819,0.7588-1.3994,1.0225
					c-0.5186,0.2636-1.0479,0.4384-1.668,0.5498c-0.6406,0.1162-1.3037,0.1474-1.8692,0.1631
					c-0.2929,0.0068-0.5996,0.0107-0.8974,0.0107l-1.084,0.002L8.4448,39.125z"/>
			</g>
		</g>
	</g>
	<g id="XMLID_15_">
		<g id="XMLID_17_">
			<g>
				<path class="st1" d="M46.0387,16.4826h-4.737l-1.1369,3.359h-2.0068l4.4872-12.4276h2.0843l4.4872,12.4276h-2.0412
					L46.0387,16.4826z M41.7926,14.9323h3.7552L43.696,9.481h-0.0517L41.7926,14.9323z"/>
				<path class="st1" d="M58.8975,15.3112c0,2.8169-1.5072,4.6245-3.781,4.6245c-1.2919,0-2.3168-0.5765-2.8508-1.5847h-0.0431
					v4.4878h-1.8604V10.7809h1.8001v1.5067h0.0345c0.5168-0.9727,1.6192-1.6008,2.8853-1.6008
					C57.3817,10.6868,58.8975,12.5035,58.8975,15.3112z M56.9855,15.3112c0-1.8339-0.9474-3.0397-2.3943-3.0397
					c-1.4211,0-2.3771,1.231-2.3771,3.0397c0,1.8259,0.956,3.0489,2.3771,3.0489C56.0381,18.3602,56.9855,17.1636,56.9855,15.3112z"
					/>
				<path class="st1" d="M68.8625,15.3112c0,2.8169-1.5072,4.6245-3.781,4.6245c-1.2919,0-2.3168-0.5765-2.8508-1.5847h-0.0431
					v4.4878h-1.8604V10.7809h1.8001v1.5067h0.0345c0.5168-0.9727,1.6192-1.6008,2.8853-1.6008
					C67.3466,10.6868,68.8625,12.5035,68.8625,15.3112z M66.9504,15.3112c0-1.8339-0.9474-3.0397-2.3943-3.0397
					c-1.4211,0-2.3771,1.231-2.3771,3.0397c0,1.8259,0.956,3.0489,2.3771,3.0489C66.0031,18.3602,66.9504,17.1636,66.9504,15.3112z"
					/>
				<path class="st1" d="M70.3611,7.4139h1.8604v12.4276h-1.8604V7.4139z"/>
				<path class="st1" d="M81.9022,17.1796c-0.2503,1.6456-1.8523,2.7745-3.9021,2.7745c-2.6349,0-4.2713-1.7662-4.2713-4.6004
					c0-2.8411,1.645-4.6853,4.1944-4.6853c2.5057,0,4.0824,1.7225,4.0824,4.4706v0.6373h-6.3993v0.1125
					c0,1.5503,0.9732,2.5654,2.4374,2.5654c1.0335,0,1.842-0.4904,2.0923-1.2747H81.9022z M75.6149,14.4764h4.5303
					c-0.0436-1.3872-0.9302-2.3002-2.2221-2.3002C76.6392,12.1762,75.7096,13.1064,75.6149,14.4764z"/>
				<path class="st1" d="M98.0505,19.8415v-9.1467h-0.0597l-3.7471,9.0526h-1.4297l-3.7552-9.0526h-0.0597v9.1467h-1.757V7.4139
					h2.2301l4.0216,9.8093h0.0689l4.0147-9.8093h2.2393v12.4276H98.0505z"/>
				<path class="st1" d="M109.7225,19.8415h-1.7834v-1.5595h-0.0425c-0.5168,1.0864-1.4217,1.6628-2.8089,1.6628
					c-1.9717,0-3.1775-1.2747-3.1775-3.3509v-5.813h1.8604v5.4524c0,1.378,0.6546,2.1095,1.9373,2.1095
					c1.3436,0,2.1543-0.9302,2.1543-2.3427v-5.2193h1.8604V19.8415z"/>
				<path class="st1" d="M115.0118,10.6776c2.0073,0,3.4451,1.1116,3.4887,2.7124h-1.749
					c-0.0769-0.8004-0.7579-1.2908-1.7915-1.2908c-1.0071,0-1.6801,0.4639-1.6801,1.1713c0,0.542,0.4479,0.9038,1.3872,1.1369
					l1.525,0.3525c1.8259,0.4398,2.5149,1.1105,2.5149,2.438c0,1.6353-1.5503,2.7561-3.7643,2.7561
					c-2.136,0-3.5737-1.0944-3.7115-2.748h1.842c0.1298,0.8693,0.8268,1.3356,1.9557,1.3356c1.1105,0,1.8087-0.4571,1.8087-1.1805
					c0-0.5604-0.3445-0.8613-1.2919-1.1024l-1.6192-0.3962c-1.6364-0.3962-2.4632-1.2322-2.4632-2.4885
					C111.4634,11.7708,112.9011,10.6776,115.0118,10.6776z"/>
				<path class="st1" d="M120.1565,8.3946c0-0.5937,0.4823-1.068,1.076-1.068c0.6029,0,1.0852,0.4743,1.0852,1.068
					c0,0.5857-0.4823,1.0599-1.0852,1.0599C120.6388,9.4546,120.1565,8.9803,120.1565,8.3946z M120.3024,10.7809h1.8604v9.0606
					h-1.8604V10.7809z"/>
				<path class="st1" d="M130.1749,13.8988c-0.1631-0.9566-0.9129-1.6709-2.136-1.6709c-1.4297,0-2.3771,1.1966-2.3771,3.0834
					c0,1.9293,0.9554,3.0925,2.3943,3.0925c1.1541,0,1.912-0.5776,2.1187-1.6284h1.7914c-0.2067,1.904-1.7317,3.1787-3.9274,3.1787
					c-2.5838,0-4.2719-1.7662-4.2719-4.6428c0-2.8169,1.6881-4.6428,4.2547-4.6428c2.3254,0,3.7724,1.4653,3.9274,3.2304H130.1749z"
					/>
			</g>
		</g>
	</g>
	<g>
		<g>
			<g>
				<path class="st1" d="M39.5362,29.083c-1.0854,0-1.6919-0.7734-1.6919-1.6445c0-0.8887,0.6064-1.667,1.6831-1.667
					c1.1069,0,1.6836,0.7822,1.6836,1.667C41.211,28.3184,40.6382,29.083,39.5362,29.083z M39.5274,28.3184
					c0.5127,0,0.8335-0.3975,0.8335-0.8799c0-0.5176-0.3208-0.8975-0.8335-0.8975c-0.4995,0-0.8115,0.3848-0.8115,0.8975
					C38.7158,27.9248,39.0279,28.3184,39.5274,28.3184z M43.0821,29.6211h0.876v2.918h-4.8794v-2.918h0.9062v0.7773h3.0972V29.6211z
					 M43.0821,31.1084h-3.0972v0.7129h3.0972V31.1084z M43.958,25.3613v3.9648h-0.8462v-1.6104h-0.6836v1.5889h-0.8369v-3.8145
					h0.8369v1.499h0.6836v-1.6279H43.958z"/>
				<path class="st1" d="M49.0225,25.5117h0.8462v6.7803h-0.8462v-3.4229h-0.6196c-0.0767,1.209-0.5684,2.2607-1.5596,2.2607
					c-1.0894,0-1.5723-1.2646-1.5723-2.6152c0-1.3496,0.4829-2.5889,1.5723-2.5889c0.9702,0,1.4614,0.9824,1.5557,2.1533h0.6235
					V25.5117z M47.5825,28.5146c0-0.9951-0.2393-1.7559-0.7393-1.7559c-0.4868,0-0.709,0.7607-0.709,1.7559
					c0,1,0.2222,1.752,0.709,1.752C47.3433,30.2666,47.5825,29.5146,47.5825,28.5146z M51.3467,25.3662v7.2676h-0.8462v-7.2676
					H51.3467z"/>
				<path class="st1" d="M55.1763,27.0703c0,1.4785,0.6836,2.543,1.7944,3.1445l-0.5254,0.6797
					c-0.6665-0.3799-1.5039-1.2051-1.7217-1.957c-0.1924,0.7949-1.0171,1.7344-1.7432,2.1445l-0.5557-0.6572
					c1.2095-0.7178,1.8203-1.8672,1.8203-3.3242v-1.124h0.9312V27.0703z M58.5816,32.6338h-0.9058v-3.9951h-1.457V27.874h1.457
					v-2.5078h0.9058V32.6338z"/>
				<path class="st1" d="M68.7403,29.4248h-6.5708V28.707h6.5708V29.4248z M67.9072,30.7881h-4.0249v1.0381h4.085v0.7129h-4.9736
					v-2.4863h4.9136V30.7881z M67.8648,26.3574h-3.9307v1.0039h3.9561v0.7129h-4.8535v-2.4346h4.8281V26.3574z"/>
				<path class="st1" d="M70.0708,31.3086l-0.5088-0.7051c1.6797-0.8066,2.7217-2.2559,2.8545-3.7334h-2.4482V26.127h3.4053
					C73.3179,28.3184,72.2749,30.1084,70.0708,31.3086z M75.5562,32.6338h-0.9014v-7.2725h0.9014V32.6338z"/>
			</g>
		</g>
	</g>
	<g>
		<g>
			<linearGradient id="SVGID_1_" gradientUnits="userSpaceOnUse" x1="20.1295" y1="32.4838" x2="20.1295" y2="7.9604">
				<stop  offset="0" style="stop-color:#FA233B"/>
				<stop  offset="1" style="stop-color:#FB5C74"/>
			</linearGradient>
			<path class="st2" d="M32.7111,15.2895c0-0.3005,0.0001-0.6011-0.0017-0.9016c-0.0015-0.2532-0.0045-0.5063-0.0113-0.7594
				c-0.0149-0.5513-0.0474-1.1074-0.1453-1.6525c-0.0995-0.5536-0.2618-1.0688-0.5179-1.5717c-0.2515-0.494-0.58-0.946-0.972-1.338
				c-0.392-0.392-0.8441-0.7206-1.3382-0.9721c-0.5027-0.2559-1.0176-0.4182-1.5709-0.5177
				c-0.5454-0.098-1.1017-0.1305-1.6531-0.1454c-0.2531-0.0068-0.5062-0.0098-0.7594-0.0113
				c-0.3005-0.0018-0.6011-0.0017-0.9016-0.0017h-9.4205c-0.3005,0-0.6011-0.0001-0.9016,0.0017
				c-0.2532,0.0015-0.5063,0.0045-0.7594,0.0113c-0.5515,0.0149-1.1078,0.0474-1.6531,0.1454
				c-0.5533,0.0994-1.0682,0.2618-1.5709,0.5177c-0.4941,0.2515-0.9462,0.5801-1.3382,0.9721c-0.392,0.392-0.7205,0.844-0.972,1.338
				c-0.2561,0.5029-0.4184,1.0181-0.5179,1.5717c-0.0979,0.5452-0.1304,1.1013-0.1453,1.6525
				c-0.0068,0.2531-0.0098,0.5062-0.0113,0.7594c-0.0018,0.3005-0.0017,0.6011-0.0017,0.9016V24.71
				c0,0.3005-0.0001,0.6011,0.0017,0.9016c0.0015,0.2532,0.0045,0.5063,0.0113,0.7594c0.0149,0.5513,0.0474,1.1074,0.1453,1.6525
				c0.0995,0.5536,0.2618,1.0688,0.5179,1.5717c0.2515,0.494,0.58,0.946,0.972,1.338c0.392,0.392,0.8441,0.7206,1.3382,0.9721
				c0.5027,0.2559,1.0176,0.4182,1.5709,0.5177c0.5454,0.098,1.1017,0.1305,1.6531,0.1454
				c0.2531,0.0068,0.5062,0.0098,0.7594,0.0113c0.3005,0.0018,0.6011,0.0017,0.9016,0.0017h9.4205
				c0.3005,0,0.6011,0.0001,0.9016-0.0017c0.2532-0.0015,0.5063-0.0045,0.7594-0.0113c0.5515-0.0149,1.1078-0.0474,1.6531-0.1454
				c0.5533-0.0994,1.0682-0.2618,1.5709-0.5177c0.4941-0.2515,0.9462-0.5801,1.3382-0.9721c0.392-0.392,0.7205-0.844,0.972-1.338
				c0.2561-0.5029,0.4184-1.0181,0.5179-1.5717c0.0979-0.5452,0.1304-1.1013,0.1453-1.6525
				c0.0068-0.2531,0.0098-0.5062,0.0113-0.7594c0.0018-0.3005,0.0017-0.6011,0.0017-0.9016V15.2895z"/>
		</g>
		<g id="Glyph_9_">
			<g>
				<path class="st3" d="M25.3372,11.2624c-0.0608,0.0052-0.6013,0.1013-0.6662,0.1145l-7.4791,1.5089l-0.0029,0.0005
					c-0.1952,0.0416-0.3477,0.1102-0.4663,0.2097c-0.1426,0.1198-0.2217,0.2887-0.2515,0.4857
					c-0.0064,0.0422-0.0171,0.127-0.0171,0.2532c0,0,0.0001,7.6411,0.0001,9.3605c0,0.2184-0.0175,0.4315-0.1655,0.6124
					c-0.1479,0.1808-0.3315,0.2357-0.5456,0.2787c-0.1628,0.0328-0.3256,0.0657-0.4883,0.0985
					c-0.6179,0.1246-1.0198,0.2089-1.3841,0.3503c-0.348,0.1351-0.6088,0.3072-0.8163,0.5247
					c-0.4114,0.4312-0.579,1.0164-0.5214,1.5642c0.0491,0.4675,0.2595,0.9148,0.6205,1.2459
					c0.2437,0.2234,0.5484,0.3934,0.908,0.4656c0.3727,0.075,0.7695,0.0486,1.3494-0.0684c0.3089-0.0623,0.5982-0.1596,0.874-0.3224
					c0.2723-0.1608,0.5062-0.3751,0.6884-0.6367c0.1829-0.2623,0.3015-0.5536,0.3666-0.8633
					c0.0671-0.3192,0.0835-0.6084,0.0835-0.927l0.0001-8.1189c0-0.4351,0.1232-0.5497,0.4739-0.6344
					c0,0,6.2169-1.2538,6.5065-1.3102c0.405-0.0779,0.5952,0.0377,0.5952,0.4618l-0.0001,5.5422
					c0,0.2198-0.0024,0.4414-0.1515,0.6237c-0.148,0.1808-0.3315,0.2357-0.5457,0.2787c-0.1628,0.0328-0.3255,0.0657-0.4883,0.0984
					c-0.6179,0.1246-1.0199,0.209-1.3841,0.3503c-0.3481,0.1351-0.6088,0.3071-0.8164,0.5247
					c-0.4114,0.4311-0.5938,1.0164-0.5362,1.5641c0.0492,0.4675,0.2744,0.9148,0.6354,1.2458
					c0.2437,0.2234,0.5484,0.3887,0.908,0.461c0.3727,0.075,0.7696,0.0486,1.3494-0.0684c0.3089-0.0623,0.5981-0.155,0.874-0.3178
					c0.2723-0.1608,0.5061-0.3751,0.6885-0.6367c0.1829-0.2623,0.3015-0.5536,0.3665-0.8633
					c0.067-0.3192,0.0699-0.6084,0.0699-0.927V11.9237C25.9685,11.4929,25.7414,11.2275,25.3372,11.2624z"/>
			</g>
		</g>
	</g>
</g>
</svg>
